<svg width="25" height="33" viewBox="0 0 25 33" fill="none" xmlns="http://www.w3.org/2000/svg">
<path d="M25 16.5C25 16.8647 24.8903 17.2144 24.6949 17.4723C24.4996 17.7301 24.2346 17.875 23.9583 17.875H13.5417V31.625C13.5417 31.9897 13.4319 32.3394 13.2366 32.5973C13.0412 32.8551 12.7763 33 12.5 33C12.2237 33 11.9588 32.8551 11.7634 32.5973C11.5681 32.3394 11.4583 31.9897 11.4583 31.625V17.875H1.04167C0.765399 17.875 0.500448 17.7301 0.305097 17.4723C0.109747 17.2144 0 16.8647 0 16.5C0 16.1353 0.109747 15.7856 0.305097 15.5277C0.500448 15.2699 0.765399 15.125 1.04167 15.125H11.4583V1.375C11.4583 1.01033 11.5681 0.660591 11.7634 0.402728C11.9588 0.144866 12.2237 0 12.5 0C12.7763 0 13.0412 0.144866 13.2366 0.402728C13.4319 0.660591 13.5417 1.01033 13.5417 1.375V15.125H23.9583C24.2346 15.125 24.4996 15.2699 24.6949 15.5277C24.8903 15.7856 25 16.1353 25 16.5Z" fill="#9E78CF"/>
</svg>
