<svg width="64" height="64" viewBox="0 0 64 64" fill="none" xmlns="http://www.w3.org/2000/svg">
<path fill-rule="evenodd" clip-rule="evenodd" d="M32 0C25.0743 0 19.2594 1.95657 15.1771 6.03429C11.104 10.1029 9.14285 15.9131 9.14285 22.8389V22.9669C9.32571 26.944 10.6606 31.7394 12.9234 35.2046C13.7463 36.4663 14.6194 37.664 15.4286 38.7794L15.6891 39.1451C16.5897 40.3794 17.3989 41.5131 18.0937 42.656C19.4651 44.896 20.288 46.9989 20.288 49.4446L20.2971 49.6549L20.2834 50.6834C20.2834 52.6766 20.4297 54.6057 20.5943 56.4069V56.4206C20.7589 58.1303 21.4126 59.7897 22.528 61.1063C23.6434 62.432 25.1931 63.36 26.9577 63.5977H26.9714C28.512 63.8034 30.2171 63.9954 32 63.9954C33.7829 63.9954 35.488 63.8034 37.0331 63.5977H37.0423C38.8069 63.3554 40.3566 62.432 41.4766 61.1063C42.5784 59.7752 43.251 58.1415 43.4057 56.4206V56.4069C43.5703 54.6057 43.7166 52.6766 43.7166 50.6789C43.7166 50.3345 43.712 49.9931 43.7029 49.6549L43.7074 49.4446C43.7074 46.9989 44.5303 44.9006 45.9017 42.656C46.6011 41.5131 47.4103 40.3794 48.3109 39.1406L48.5714 38.7794C49.3806 37.6686 50.2491 36.4663 51.0766 35.2046C53.3394 31.7394 54.6743 26.944 54.8526 22.9669L54.8571 22.8434C54.8571 15.9177 52.9006 10.1074 48.8229 6.02971C44.7451 1.952 38.9211 0 32 0ZM34.8571 45.6869C36.1783 45.7554 37.2709 45.8789 38.3543 46.0526C38.8663 43.6663 39.872 41.5771 41.0286 39.68C41.856 38.3269 42.7886 37.0286 43.68 35.7943L43.9406 35.4331C44.7634 34.304 45.5497 33.2206 46.2903 32.0869C47.8994 29.6183 48.9874 25.8834 49.1429 22.7749C49.1291 16.9417 47.488 12.7817 44.7817 10.0754C42.0571 7.35543 37.8789 5.71429 32 5.71429C26.1211 5.71429 21.9429 7.36 19.2183 10.0754C16.512 12.7817 14.8709 16.9417 14.8571 22.7749C15.0126 25.8834 16.1006 29.6183 17.7097 32.0869C18.4503 33.2206 19.2366 34.304 20.0594 35.4331L20.3154 35.7897C21.2114 37.024 22.144 38.3269 22.9714 39.68C24.128 41.5771 25.1337 43.6663 25.6457 46.0526C26.7291 45.8789 27.8263 45.7554 29.1429 45.6869V37.5269C28.4146 37.1305 27.7703 36.5964 27.2457 35.9543C25.1667 33.4266 23.4554 30.6179 22.1623 27.6114C21.9015 26.9193 21.9194 26.1531 22.212 25.4738C22.5046 24.7946 23.0492 24.2552 23.7312 23.9693C24.4133 23.6833 25.1797 23.673 25.8692 23.9404C26.5588 24.2079 27.1177 24.7323 27.4286 25.4034C28.5056 27.9003 29.9308 30.232 31.6617 32.3291C31.8126 32.512 31.936 32.5303 32.0046 32.5303C32.0731 32.5303 32.1966 32.512 32.3474 32.3291C33.8103 30.5417 35.4514 28.0823 36.576 25.4034C36.8688 24.7045 37.4273 24.1505 38.1285 23.8633C38.8298 23.5761 39.6165 23.5792 40.3154 23.872C41.0144 24.1648 41.5684 24.7233 41.8556 25.4245C42.1428 26.1258 42.1397 26.9125 41.8469 27.6114C40.551 30.6185 38.8365 33.4272 36.7543 35.9543C36.2057 36.6263 35.5566 37.152 34.8526 37.5269L34.8571 45.6869Z" fill="#9E78CF"/>
</svg>
