<svg width="34" height="34" viewBox="0 0 34 34" fill="none" xmlns="http://www.w3.org/2000/svg">
<path d="M33.5 17C33.5 17.3647 33.3551 17.7144 33.0973 17.9723C32.8394 18.2301 32.4897 18.375 32.125 18.375H18.375V32.125C18.375 32.4897 18.2301 32.8394 17.9723 33.0973C17.7144 33.3551 17.3647 33.5 17 33.5C16.6353 33.5 16.2856 33.3551 16.0277 33.0973C15.7699 32.8394 15.625 32.4897 15.625 32.125V18.375H1.875C1.51033 18.375 1.16059 18.2301 0.902728 17.9723C0.644866 17.7144 0.5 17.3647 0.5 17C0.5 16.6353 0.644866 16.2856 0.902728 16.0277C1.16059 15.7699 1.51033 15.625 1.875 15.625H15.625V1.875C15.625 1.51033 15.7699 1.16059 16.0277 0.902728C16.2856 0.644866 16.6353 0.5 17 0.5C17.3647 0.5 17.7144 0.644866 17.9723 0.902728C18.2301 1.16059 18.375 1.51033 18.375 1.875V15.625H32.125C32.4897 15.625 32.8394 15.7699 33.0973 16.0277C33.3551 16.2856 33.5 16.6353 33.5 17Z" fill="white"/>
</svg>
